<?xml version="1.0" encoding="UTF-8"?>
<svg width="412px" height="412px" viewBox="0 0 412 412" version="1.1" xmlns="http://www.w3.org/2000/svg" xmlns:xlink="http://www.w3.org/1999/xlink">
    <!-- Generator: Sketch 50.2 (55047) - http://www.bohemiancoding.com/sketch -->
    <title>appicon</title>
    <desc>Created with Sketch.</desc>
    <defs></defs>
    <g id="Pres" stroke="none" stroke-width="1" fill="none" fill-rule="evenodd">
        <g id="Desktop-HD" transform="translate(-514.000000, -12555.000000)">
            <g id="appicon" transform="translate(514.000000, 12555.000000)">
                <rect id="Rectangle" fill="#00E9A2" x="0" y="0" width="412" height="412" rx="96"></rect>
                <path d="M108.385476,286.904297 L108.385476,125.095703 L158.812127,125.095703 C177.061863,125.095703 190.767431,128.494388 199.929242,135.291861 C209.091053,142.089334 213.67189,152.211505 213.67189,165.658679 C213.67189,175.411575 211.104405,183.28027 205.969358,189.265002 C200.83431,195.249733 193.057971,199.424205 182.640105,201.788543 C194.314025,204.300653 202.976979,208.789134 208.629225,215.254122 C214.281471,221.719109 217.107552,230.382063 217.107552,241.243242 C217.107552,256.389784 212.194235,267.786462 202.367454,275.433619 C192.540673,283.080776 178.022376,286.904297 158.812127,286.904297 L108.385476,286.904297 Z M229.496497,286.904297 L229.496497,202.365879 L217.173991,202.365879 L230.370232,125.095703 L303.614524,125.095703 L303.614524,286.904297 L229.496497,286.904297 Z" id="b1" fill="#000000"></path>
            </g>
        </g>
    </g>
</svg>