<?xml version="1.0" encoding="UTF-8"?>
<svg width="196px" height="163px" viewBox="0 0 196 163" version="1.1" xmlns="http://www.w3.org/2000/svg" xmlns:xlink="http://www.w3.org/1999/xlink">
    <!-- Generator: Sketch 50.2 (55047) - http://www.bohemiancoding.com/sketch -->
    <title>b1_black</title>
    <desc>Created with Sketch.</desc>
    <defs></defs>
    <g id="Pres" stroke="none" stroke-width="1" fill="none" fill-rule="evenodd">
        <g id="Desktop-HD" transform="translate(-622.000000, -10732.000000)" fill="#000000">
            <g id="Group" transform="translate(0.000000, 10350.796875)">
                <path d="M622.385476,543.904297 L622.385476,382.095703 L672.812127,382.095703 C691.061863,382.095703 704.767431,385.494388 713.929242,392.291861 C723.091053,399.089334 727.67189,409.211505 727.67189,422.658679 C727.67189,432.411575 725.104405,440.28027 719.969358,446.265002 C714.83431,452.249733 707.057971,456.424205 696.640105,458.788543 C708.314025,461.300653 716.976979,465.789134 722.629225,472.254122 C728.281471,478.719109 731.107552,487.382063 731.107552,498.243242 C731.107552,513.389784 726.194235,524.786462 716.367454,532.433619 C706.540673,540.080776 692.022376,543.904297 672.812127,543.904297 L622.385476,543.904297 Z M743.496497,543.904297 L743.496497,459.365879 L731.173991,459.365879 L744.370232,382.095703 L817.614524,382.095703 L817.614524,543.904297 L743.496497,543.904297 Z" id="b1_black"></path>
            </g>
        </g>
    </g>
</svg>