<?xml version="1.0" encoding="UTF-8"?>
<svg width="196px" height="162px" viewBox="0 0 196 162" version="1.1" xmlns="http://www.w3.org/2000/svg" xmlns:xlink="http://www.w3.org/1999/xlink">
    <!-- Generator: Sketch 50.2 (55047) - http://www.bohemiancoding.com/sketch -->
    <title>b1_white</title>
    <desc>Created with Sketch.</desc>
    <defs></defs>
    <g id="Pres" stroke="none" stroke-width="1" fill="none" fill-rule="evenodd">
        <g id="Desktop-HD" transform="translate(-622.000000, -9714.000000)" fill="#FFFFFF">
            <path d="M622.385476,9875.83984 L622.385476,9714.03125 L672.812127,9714.03125 C691.061863,9714.03125 704.767431,9717.42994 713.929242,9724.22741 C723.091053,9731.02488 727.67189,9741.14705 727.67189,9754.59423 C727.67189,9764.34712 725.104405,9772.21582 719.969358,9778.20055 C714.83431,9784.18528 707.057971,9788.35975 696.640105,9790.72409 C708.314025,9793.2362 716.976979,9797.72468 722.629225,9804.18967 C728.281471,9810.65466 731.107552,9819.31761 731.107552,9830.17879 C731.107552,9845.32533 726.194235,9856.72201 716.367454,9864.36917 C706.540673,9872.01632 692.022376,9875.83984 672.812127,9875.83984 L622.385476,9875.83984 Z M743.496497,9875.83984 L743.496497,9791.30143 L731.173991,9791.30143 L744.370232,9714.03125 L817.614524,9714.03125 L817.614524,9875.83984 L743.496497,9875.83984 Z" id="b1_white"></path>
        </g>
    </g>
</svg>