<?xml version="1.0" encoding="UTF-8"?>
<svg width="253px" height="163px" viewBox="0 0 253 163" version="1.1" xmlns="http://www.w3.org/2000/svg" xmlns:xlink="http://www.w3.org/1999/xlink">
    <!-- Generator: Sketch 50.2 (55047) - http://www.bohemiancoding.com/sketch -->
    <title>dotcom_black</title>
    <desc>Created with Sketch.</desc>
    <defs></defs>
    <g id="Pres" stroke="none" stroke-width="1" fill="none" fill-rule="evenodd">
        <g id="Desktop-HD" transform="translate(-589.000000, -11690.000000)" fill="#000000">
            <g id="dotcom_black" transform="translate(589.500000, 11688.929688)">
                <path d="M0.38547625,163.904297 L0.38547625,2.09570312 L50.812127,2.09570312 C69.0618633,2.09570312 82.7674314,5.49438846 91.9292423,12.2918611 C101.091053,19.0893337 105.67189,29.2115053 105.67189,42.6586794 C105.67189,52.4115749 103.104405,60.2802703 97.9693576,66.2650016 C92.8343104,72.2497329 85.0579705,76.4242051 74.6401049,78.7885435 C86.3140253,81.3006529 94.9769786,85.7891341 100.629225,92.2541216 C106.281471,98.7191092 109.107552,107.382063 109.107552,118.243242 C109.107552,133.389784 104.194235,144.786462 94.367454,152.433619 C84.5406729,160.080776 70.0223758,163.904297 50.812127,163.904297 L0.38547625,163.904297 Z M121.496497,163.904297 L121.496497,79.365879 L109.173991,79.365879 L122.370232,2.09570312 L195.614524,2.09570312 L195.614524,163.904297 L121.496497,163.904297 Z" id="Combined-Shape-Copy"></path>
                <path d="M156.62,104.225476 C152.36,104.225476 149.3,101.045476 149.3,97.0254762 C149.3,93.0654762 152.36,89.8254762 156.62,89.8254762 C161,89.8254762 164.18,93.0654762 164.18,97.0254762 C164.18,101.045476 161,104.225476 156.62,104.225476 Z M187.094782,104.225476 C170.774782,104.225476 163.514782,95.3454762 163.514782,82.2054762 L163.514782,81.7254762 C163.514782,68.2854762 173.354782,59.8254762 186.314782,59.8254762 C198.614782,59.8254762 206.474782,65.2254762 207.554782,77.5854762 L190.994782,77.5854762 C190.814782,74.3454762 189.134782,72.4254762 186.374782,72.4254762 C182.594782,72.4254762 180.374782,75.4254762 180.374782,81.6654762 L180.374782,82.1454762 C180.374782,88.2054762 182.534782,91.4454762 186.674782,91.4454762 C189.614782,91.4454762 191.774782,89.8854762 192.134782,86.2854762 L208.094782,86.2854762 C207.614782,97.9854762 198.974782,104.225476 187.094782,104.225476 Z M231.849565,91.7454762 C236.049565,91.7454762 238.749565,88.3854762 238.749565,82.1454762 L238.749565,81.6654762 C238.749565,75.0654762 235.869565,72.2454762 231.789565,72.2454762 C227.769565,72.2454762 225.009565,75.1254762 225.009565,81.6654762 L225.009565,82.1454762 C225.009565,88.6254762 227.469565,91.7454762 231.849565,91.7454762 Z M231.429565,104.225476 C216.969565,104.225476 208.329565,95.5254762 208.329565,82.2054762 L208.329565,81.7254762 C208.329565,68.1654762 218.829565,59.8254762 231.789565,59.8254762 C245.109565,59.8254762 255.429565,67.3254762 255.429565,81.3054762 L255.429565,81.7854762 C255.429565,95.5254762 246.009565,104.225476 231.429565,104.225476 Z M258.484347,103.385476 L258.484347,60.4854762 L279.004347,60.4854762 L284.644347,77.6454762 L290.464347,60.4854762 L310.624347,60.4854762 L310.624347,103.385476 L294.724347,103.385476 L294.724347,80.5854762 L286.204347,103.385476 L280.804347,103.385476 L272.644347,80.5854762 L272.644347,103.385476 L258.484347,103.385476 Z" id=".COM" transform="translate(229.962173, 82.025476) rotate(-90.000000) translate(-229.962173, -82.025476) "></path>
            </g>
        </g>
    </g>
</svg>